#!OML:ASF X:\für Bonn\!DataBase\2005_08_12_Daniel\c3d\Daniel.ASF
:FULLY-SPECIFIED
:DEGREES
62
root 6.82633 16.1761 -0.264192 -729.373 -77.7014 718.592
lowerback 5.00531 -12.1237 -2.13449
upperback 2.94105 -16.3047 -1.36701
thorax 0.509863 -8.20184 0.420934
lowerneck 5.74921 8.60175 4.15786
upperneck 13.7572 12.0246 -9.36119
head 3.99788 5.54576 -3.28396
rclavicle -2.5519e-014 3.57812e-015
rhumerus -46.0761 -8.78785 -75.3454
rradius 32.5118
rwrist 16.9212
rhand -26.1287 11.9134
rfingers 7.12502
rthumb 0.421454 -18.0659
lclavicle -2.5519e-014 3.57812e-015
lhumerus -50.6568 21.5237 73.1723
lradius 93.4731
lwrist 192.075
lhand -14.5785 18.3912
lfingers 7.12502
lthumb 11.5713 48.0517
rfemur -30.2105 0.0373334 18.5148
rtibia 49.7664
rfoot -8.71104 1.35301
rtoes -9.09949
lfemur -3.21576 -4.84827 -14.888
ltibia 87.496
lfoot 18.0333 -4.98909
ltoes -16.6662
63
root 6.73121 16.1988 -0.263108 -730.68 -78.3406 719.286
lowerback 5.61542 -11.5995 -1.91908
upperback 3.19043 -15.6187 -1.62045
thorax 0.295737 -7.85916 0.161872
lowerneck 6.13773 8.36971 3.94985
upperneck 13.7783 11.6796 -9.25484
head 3.89815 5.37446 -3.25153
rclavicle 1.15233e-014 -2.48481e-015
rhumerus -44.507 -7.96588 -76.8898
rradius 32.8989
rwrist 17.3921
rhand -26.5826 12.2758
rfingers 7.12502
rthumb -0.0169076 -17.704
lclavicle 1.15233e-014 -2.48481e-015
lhumerus -51.1904 21.442 72.7444
lradius 93.9888
lwrist 192.6
lhand -15.2522 17.8066
lfingers 7.12502
lthumb 10.9215 47.5025
rfemur -29.0937 0.642861 18.6358
rtibia 49.6037
rfoot -9.04075 1.38213
rtoes -9.07904
lfemur -6.58706 -3.92107 -14.9887
ltibia 92.0464
lfoot 18.9059 -6.39321
ltoes -15.14
64
root 6.64546 16.2239 -0.261532 -732.365 -78.995 720.296
lowerback 6.37238 -11.0224 -1.73964
upperback 3.44832 -14.868 -1.88159
thorax 0.0271281 -7.48485 -0.0774557
lowerneck 6.54839 8.11255 3.63287
upperneck 13.7617 11.2839 -9.04732
head 3.77019 5.17881 -3.17264
rclavicle -8.01692e-014 -4.47266e-015
rhumerus -42.9304 -7.08591 -78.3561
rradius 33.3258
rwrist 17.7565
rhand -27.0358 12.7337
rfingers 7.12502
rthumb -0.45468 -17.2455
lclavicle -8.01692e-014 -4.47266e-015
lhumerus -51.6483 21.3078 72.3506
lradius 94.524
lwrist 192.994
lhand -15.6888 17.3007
lfingers 7.12502
lthumb 10.5004 47.0184
rfemur -27.8901 1.27843 18.7125
rtibia 49.3636
rfoot -9.31615 1.39188
rtoes -8.89551
lfemur -10.0473 -2.88378 -15.0982
ltibia 96.4641
lfoot 19.291 -7.92577
ltoes -14.51
65
root 6.56647 16.2533 -0.258888 -734.481 -79.6452 721.667
lowerback 7.2843 -10.4362 -1.57316
upperback 3.71019 -14.1111 -2.17918
thorax -0.316967 -7.10747 -0.335996
lowerneck 6.96936 7.86475 3.25501
upperneck 13.741 10.8878 -8.75306
head 3.63452 4.98293 -3.05601
rclavicle -4.3481e-014 -3.97569e-016
rhumerus -41.3572 -6.04112 -79.8317
rradius 33.821
rwrist 17.8909
rhand -27.5163 13.221
rfingers 7.12502
rthumb -0.91875 -16.7568
lclavicle -4.3481e-014 -3.97569e-016
lhumerus -52.0796 21.1804 71.8562
lradius 95.0903
lwrist 193.336
lhand -15.9318 16.8332
lfingers 7.12502
lthumb 10.266 46.5627
rfemur -26.5842 1.92638 18.7506
rtibia 49.0506
rfoot -9.55288 1.40732
rtoes -8.74821
lfemur -13.5761 -1.74686 -15.2147
ltibia 100.707
lfoot 19.3265 -9.55545
ltoes -14.8949
66
root 6.49143 16.2803 -0.255466 -737.235 -80.2823 723.627
lowerback 8.27999 -9.83899 -1.42305
upperback 3.97931 -13.346 -2.55355
thorax -0.701879 -6.72653 -0.671477
lowerneck 7.47581 7.61114 2.92332
upperneck 13.7013 10.476 -8.4004
head 3.48141 4.78518 -2.93077
rclavicle -2.84883e-014 -4.96962e-016
rhumerus -39.8484 -4.9772 -81.2682
rradius 34.4092
rwrist 17.9423
rhand -27.8847 13.7161
rfingers 7.12502
rthumb -1.27451 -16.2598
lclavicle -2.84883e-014 -4.96962e-016
lhumerus -52.5909 20.9782 71.2243
lradius 95.7619
lwrist 193.684
lhand -15.935 16.504
lfingers 7.12502
lthumb 10.2629 46.2336
rfemur -25.2174 2.57839 18.7238
rtibia 48.6734
rfoot -9.7192 1.41872
rtoes -8.5428
lfemur -17.1969 -0.528665 -15.3973
ltibia 104.756
lfoot 19.3137 -11.2289
ltoes -15.6134
